<svg xmlns="http://www.w3.org/2000/svg" width="28" height="28.001" viewBox="0 0 28 28.001"><defs><style>.a{fill:#d1d3d4;}</style></defs><g transform="translate(-814.832 -159.992)"><path class="a" d="M828.832,159.992a14,14,0,1,0,14,14A14,14,0,0,0,828.832,159.992Zm0,25.852a11.852,11.852,0,1,1,11.851-11.852A11.865,11.865,0,0,1,828.832,185.844Z"/><path class="a" d="M843.982,172.912a.833.833,0,0,0-.728-1.238h-10.8v-.182a.629.629,0,0,0-.628-.629h-.393a.629.629,0,0,0-.629.629V187.6a.629.629,0,0,0,.629.629h.393a.629.629,0,0,0,.628-.629v-7.511h10.8a.833.833,0,0,0,.728-1.238l-1.423-2.564a.833.833,0,0,1,0-.809Zm-2.832,4.155.782,1.408h-9.478v-5.189h9.478l-.782,1.408A2.431,2.431,0,0,0,841.15,177.067Z" transform="translate(-7.392 -5.032)"/></g></svg>