<svg xmlns="http://www.w3.org/2000/svg" width="50.67" height="50.67" viewBox="0 0 50.67 50.67"><defs><style>.a{fill:#57739a;}</style></defs><g transform="translate(-882.568 -222.549)"><path class="a" d="M907.9,222.549a25.335,25.335,0,1,0,25.335,25.335A25.335,25.335,0,0,0,907.9,222.549Zm0,46.782a21.447,21.447,0,1,1,21.447-21.447A21.471,21.471,0,0,1,907.9,269.331Z" transform="translate(0 0)"/><path class="a" d="M910.094,246.475v-5.01A12.042,12.042,0,0,1,914.6,243l1.474-3.626a13.328,13.328,0,0,0-5.982-1.8v-3.212h-2.947v3.271c-4.658.53-6.925,3.213-6.925,6.336,0,4.215,3.654,5.3,6.925,6.1v4.922a11.937,11.937,0,0,1-5.718-2.093l-1.62,3.595a13.96,13.96,0,0,0,7.338,2.358v3.212h2.947v-3.3c4.626-.56,6.867-3.213,6.867-6.277C916.962,248.332,913.364,247.242,910.094,246.475Zm-2.947-.737c-1.3-.412-2.181-.973-2.181-2,0-.973.619-1.827,2.181-2.181Zm2.947,9.136v-4.067c1.266.442,2.121,1,2.121,2.033C912.215,253.784,911.567,254.55,910.094,254.875Z" transform="translate(-0.482 -0.331)"/></g></svg>