<svg xmlns="http://www.w3.org/2000/svg" width="28" height="28" viewBox="0 0 28 28"><defs><style>.a{fill:#707070;}</style></defs><g transform="translate(-882.568 -222.549)"><path class="a" d="M896.568,222.549a14,14,0,1,0,14,14A14,14,0,0,0,896.568,222.549Zm0,25.851a11.851,11.851,0,1,1,11.851-11.851A11.865,11.865,0,0,1,896.568,248.4Z" transform="translate(0)"/><path class="a" d="M905.492,241.057v-2.768a6.654,6.654,0,0,1,2.491.847l.814-2a7.365,7.365,0,0,0-3.306-.993v-1.775h-1.629v1.807c-2.574.293-3.827,1.775-3.827,3.5,0,2.329,2.019,2.931,3.827,3.371v2.72a6.6,6.6,0,0,1-3.16-1.156l-.895,1.986a7.714,7.714,0,0,0,4.055,1.3v1.775h1.629v-1.824c2.556-.309,3.795-1.775,3.795-3.469C909.287,242.083,907.3,241.481,905.492,241.057Zm-1.629-.407c-.716-.228-1.205-.538-1.205-1.107,0-.538.342-1.01,1.205-1.205Zm1.629,5.049v-2.247c.7.244,1.172.554,1.172,1.123C906.665,245.1,906.306,245.519,905.492,245.7Z" transform="translate(-7.98 -5.469)"/></g></svg>