<svg xmlns="http://www.w3.org/2000/svg" width="24" height="23.51" viewBox="0 0 24 23.51"><defs><style>.a{fill:#bcbec0;}</style></defs><path class="a" d="M323.56,538.262q-3.771,4.008-7.54,8.02a.272.272,0,0,0-.065.175c.021.794.047,1.589.073,2.384.009.268.02.535.031.807l.4-.012c.887-.029,1.774-.063,2.661-.085a.475.475,0,0,0,.37-.161q3.8-4.05,7.609-8.094l.775-.825-3.4-3.183Z" transform="translate(-305.893 -535.099)"/><path class="a" d="M343.113,534.106q-1.018-.961-2.044-1.913a.857.857,0,0,0-1.219-.007c-.35.326-.679.676-1.03,1.029l3.4,3.245c.333-.358.671-.693.974-1.057A.96.96,0,0,0,343.113,534.106Z" transform="translate(-319.408 -531.935)"/><path class="a" d="M310.842,553.217a3.04,3.04,0,0,1-3.037,3.036H296.43a3.04,3.04,0,0,1-3.036-3.036V541.843a3.04,3.04,0,0,1,3.036-3.037h9.977l2-2a5.129,5.129,0,0,0-.607-.04H296.43a5.087,5.087,0,0,0-5.081,5.082v11.374a5.087,5.087,0,0,0,5.081,5.081H307.8a5.087,5.087,0,0,0,5.082-5.081V543.06l-2.045,2.045Z" transform="translate(-291.349 -534.788)"/></svg>