<svg xmlns="http://www.w3.org/2000/svg" width="272.5" height="272.5" viewBox="0 0 272.5 272.5"><defs><style>.a{fill:#56123d;}</style></defs><g transform="translate(-1559.463 -550.484)"><path class="a" d="M1662.473,668.308l12.992,3.477a62.025,62.025,0,0,1,75.87-43.817l3.476-12.988A75.483,75.483,0,0,0,1662.473,668.308Z"/><path class="a" d="M1685.428,674.455l12.992,3.481a38.225,38.225,0,0,1,46.764-27.012l3.481-12.992A51.7,51.7,0,0,0,1685.428,674.455Z"/><path class="a" d="M1708.387,680.6l12.991,3.476a14.436,14.436,0,0,1,17.66-10.2l3.476-12.991A27.9,27.9,0,0,0,1708.387,680.6Z"/><path class="a" d="M1629.858,734.378l-3.477,12.992a75.486,75.486,0,0,0,92.338-53.327l-12.991-3.483A62.02,62.02,0,0,1,1629.858,734.378Z"/><path class="a" d="M1695.763,687.891l-12.992-3.477a38.235,38.235,0,0,1-46.763,27.01l-3.485,12.992A51.7,51.7,0,0,0,1695.763,687.891Z"/><path class="a" d="M1672.8,681.747l-12.991-3.481a14.438,14.438,0,0,1-17.66,10.2l-3.477,12.991A27.9,27.9,0,0,0,1672.8,681.747Z"/></g><g transform="translate(-1559.463 -550.484)"><path class="a" d="M1690.463,812.484c-72.234,0-131-58.766-131-131s58.766-131,131-131,131,58.767,131,131S1762.7,812.484,1690.463,812.484Zm0-243a112,112,0,1,0,112,112A112.128,112.128,0,0,0,1690.463,569.484Z"/></g><g transform="translate(-1559.463 -550.484)"><path class="a" d="M1822.463,822.984a9.471,9.471,0,0,1-6.718-2.782l-41.26-41.26a9.5,9.5,0,0,1,13.436-13.435l41.26,41.26a9.5,9.5,0,0,1-6.718,16.217Z"/></g></svg>