<svg xmlns="http://www.w3.org/2000/svg" width="28.065" height="28.064" viewBox="0 0 28.065 28.064"><defs><style>.a{fill:#707070;}</style></defs><g transform="translate(0 0)"><g transform="translate(0 0)"><path class="a" d="M1572.955,577.467a13.492,13.492,0,1,1,13.491-13.492A13.507,13.507,0,0,1,1572.955,577.467Zm0-25.026a11.535,11.535,0,1,0,11.535,11.535A11.548,11.548,0,0,0,1572.955,552.441Z" transform="translate(-1559.463 -550.484)"/></g><g transform="translate(21.858 21.858)"><path class="a" d="M1776.93,768.931a.976.976,0,0,1-.692-.286l-4.249-4.249a.978.978,0,0,1,1.384-1.384l4.249,4.249a.978.978,0,0,1-.692,1.67Z" transform="translate(-1771.703 -762.725)"/></g></g></svg>