<svg xmlns="http://www.w3.org/2000/svg" width="28" height="28" viewBox="0 0 28 28"><defs><style>.a{fill:#707070;}</style></defs><g transform="translate(-604.705 -85.438)"><path class="a" d="M614.108,114.275h-6.327a3.076,3.076,0,0,0-3.076,3.076v6.327a3.076,3.076,0,0,0,3.076,3.076h6.327a3.076,3.076,0,0,0,3.076-3.076v-6.327A3.076,3.076,0,0,0,614.108,114.275Zm.923,9.4a.924.924,0,0,1-.923.923h-6.327a.924.924,0,0,1-.923-.923v-6.327a.924.924,0,0,1,.923-.923h6.327a.924.924,0,0,1,.923.923Z" transform="translate(0 -13.316)"/><path class="a" d="M642.944,114.275h-6.326a3.076,3.076,0,0,0-3.076,3.076v6.327a3.076,3.076,0,0,0,3.076,3.076h6.326a3.076,3.076,0,0,0,3.077-3.076v-6.327A3.076,3.076,0,0,0,642.944,114.275Zm.924,9.4a.924.924,0,0,1-.924.923h-6.326a.924.924,0,0,1-.923-.923v-6.327a.924.924,0,0,1,.923-.923h6.326a.924.924,0,0,1,.924.923Z" transform="translate(-13.316 -13.316)"/><path class="a" d="M614.108,85.438h-6.327a3.076,3.076,0,0,0-3.076,3.077v6.326a3.076,3.076,0,0,0,3.076,3.076h6.327a3.076,3.076,0,0,0,3.076-3.076V88.515A3.076,3.076,0,0,0,614.108,85.438Zm.923,9.4a.924.924,0,0,1-.923.923h-6.327a.924.924,0,0,1-.923-.923V88.515a.925.925,0,0,1,.923-.924h6.327a.924.924,0,0,1,.923.924Z"/><path class="a" d="M642.944,85.438h-6.326a3.076,3.076,0,0,0-3.076,3.077v6.326a3.076,3.076,0,0,0,3.076,3.076h6.326a3.076,3.076,0,0,0,3.077-3.076V88.515A3.077,3.077,0,0,0,642.944,85.438Zm.924,9.4a.924.924,0,0,1-.924.923h-6.326a.924.924,0,0,1-.923-.923V88.515a.924.924,0,0,1,.923-.924h6.326a.925.925,0,0,1,.924.924Z" transform="translate(-13.316)"/></g></svg>