<svg xmlns="http://www.w3.org/2000/svg" width="50.656" height="50.67" viewBox="0 0 50.656 50.67"><defs><style>.a{fill:#85a1c8;}</style></defs><g transform="translate(0 50.67) rotate(-90)"><g transform="translate(0 0)"><path class="a" d="M21.146,50.656A8.4,8.4,0,0,1,15.8,48.729c-.32-.262-.606-.541-.82-.754Q8.84,41.84,2.706,35.7a8.545,8.545,0,0,1,.015-12.49l6.25-6.249Q15.588,10.347,22.2,3.726A11.089,11.089,0,0,1,29.974.378C31.71.329,33.445.271,35.181.214c2.2-.073,4.4-.146,6.608-.2a13.249,13.249,0,0,1,3.342.228,7.213,7.213,0,0,1,5.536,7.223c-.039,1.529-.1,3.057-.162,4.585l-.161,3.832c0,.048,0,.1-.006.142-.061,1.449-.125,2.948-.155,4.413a11.452,11.452,0,0,1-3.48,8.141q-7.558,7.51-15.078,15.058l-4.547,4.553A8.365,8.365,0,0,1,21.146,50.656ZM42.628,3.8c-.243,0-.493,0-.743.011-2.193.055-4.385.128-6.577.2-1.742.057-3.484.115-5.227.164a7.3,7.3,0,0,0-5.19,2.231Q18.283,13.04,11.659,19.652L5.41,25.9A4.715,4.715,0,0,0,5.4,33.014q6.133,6.137,12.273,12.27c.161.16.352.346.546.5a4.52,4.52,0,0,0,6.171-.29l4.547-4.552Q36.467,33.4,44.021,25.879a7.571,7.571,0,0,0,2.359-5.521c.031-1.506.1-3.026.158-4.5.027-.651.055-1.3.08-1.955L46.7,11.9c.061-1.51.122-3.019.161-4.53a3.4,3.4,0,0,0-2.587-3.419A7.532,7.532,0,0,0,42.628,3.8ZM35.381,23.2h-.032a7.775,7.775,0,0,1-5.534-2.32A7.881,7.881,0,0,1,35.392,7.449h.066A7.876,7.876,0,0,1,35.381,23.2Zm-.016-3.8h.015a4.072,4.072,0,1,0-2.831-6.973,4.018,4.018,0,0,0-1.212,2.85,4.1,4.1,0,0,0,1.182,2.932A4,4,0,0,0,35.366,19.4Z"/></g></g></svg>