<svg xmlns="http://www.w3.org/2000/svg" width="70.984" height="70.984" viewBox="0 0 70.984 70.984"><defs><style>.a,.c{fill:none;}.a{stroke:#707070;stroke-width:2px;}.b{stroke:none;}</style></defs><g className="a"><circle className="b" cx="35.492" cy="35.492" r="35.492"/><circle className="c" cx="35.492" cy="35.492" r="34.492"/></g><g transform="translate(-920.353 -453.914)"><path d="M955.561,513.946a25,25,0,1,1,25-25A24.993,24.993,0,0,1,955.561,513.946ZM938.094,500.08a3.811,3.811,0,0,0,.263.453,23.763,23.763,0,0,0,1.542,1.9,7.893,7.893,0,0,0,8.014,2.377,8.111,8.111,0,0,0,5.461-4.131,6.321,6.321,0,0,0,.508-5.426c-.565-1.511-1.106-3.031-1.68-4.539a54.6,54.6,0,0,1-2.6-8.088,12.871,12.871,0,0,1-.278-4.708,4.408,4.408,0,0,1,3.087-3.8,9.973,9.973,0,0,1,6.293-.01,4.367,4.367,0,0,1,3.066,3.588,11.458,11.458,0,0,1-.084,4.133,31.477,31.477,0,0,1-1.493,5.445c-.821,2.267-1.7,4.514-2.523,6.779a16.006,16.006,0,0,0-.74,2.432,5.987,5.987,0,0,0,.57,3.671,8.1,8.1,0,0,0,5.551,4.608,7.752,7.752,0,0,0,6.22-.76,11.19,11.19,0,0,0,3.595-3.6,3.3,3.3,0,0,0,.155-.293.729.729,0,0,0-.276.073c-.753.286-1.5.6-2.264.845a4.6,4.6,0,0,1-2.488.209,5.564,5.564,0,0,1-3.688-2.909,4.459,4.459,0,0,1-.2-3.284,17.928,17.928,0,0,1,1.633-3.891c.881-1.687,1.822-3.346,2.636-5.064a15.184,15.184,0,0,0,1.52-7.891,6.85,6.85,0,0,0-1.478-3.765,8.879,8.879,0,0,0-4.08-2.73,22.331,22.331,0,0,0-6.345-1.16,35.883,35.883,0,0,0-7.988.347,15.752,15.752,0,0,0-4.516,1.372,7.235,7.235,0,0,0-4.3,6.9,15.773,15.773,0,0,0,1.6,7c.817,1.689,1.738,3.328,2.608,4.992a17.912,17.912,0,0,1,1.632,3.891,4.457,4.457,0,0,1-.58,3.944,6.341,6.341,0,0,1-2.5,2.011,3.135,3.135,0,0,1-1.764.3,16.028,16.028,0,0,1-2.184-.472C939.369,500.64,938.769,500.349,938.094,500.08Z" transform="translate(0)"/></g></svg>