<svg xmlns="http://www.w3.org/2000/svg" width="28.005" height="28" viewBox="0 0 28.005 28"><defs><style>.a{fill:#707070;}</style></defs><g transform="translate(-946.318 -84.006)"><path class="a" d="M957.629,112.006a1.693,1.693,0,0,1-1.648-1.418l-.425-2.876a10.844,10.844,0,0,1-1.45-.817l-2.8,1.092a1.728,1.728,0,0,1-2.08-.714l-2.67-4.492a1.687,1.687,0,0,1,.418-2.188l2.35-1.788c-.021-.262-.033-.526-.035-.788s.015-.541.036-.8l-2.343-1.782a1.655,1.655,0,0,1-.416-2.208l2.654-4.469a1.7,1.7,0,0,1,2.09-.721l2.794,1.091a11.4,11.4,0,0,1,1.447-.817l.423-2.867a1.7,1.7,0,0,1,1.669-1.433h5.342a1.7,1.7,0,0,1,1.68,1.423l.423,2.874a10.833,10.833,0,0,1,1.45.819l2.795-1.091a1.727,1.727,0,0,1,2.08.714l2.668,4.489a1.686,1.686,0,0,1-.418,2.188l-2.35,1.788c.021.263.033.527.035.789s-.014.54-.035.805l2.344,1.777a1.687,1.687,0,0,1,.428,2.191l-2.667,4.487a1.7,1.7,0,0,1-2.089.721l-2.794-1.091a11.411,11.411,0,0,1-1.447.818l-.422,2.866A1.7,1.7,0,0,1,963,112.005h-5.374Zm.019-2.081h0Zm-3.236-5.383.464.348a8.7,8.7,0,0,0,2.012,1.13l.556.222.543,3.683h4.677l.542-3.677.549-.224a9.284,9.284,0,0,0,2.024-1.142l.462-.344,3.555,1.389,2.322-3.906-3.009-2.281.083-.6a7.735,7.735,0,0,0,0-2.256l-.083-.6,3.007-2.288-2.319-3.9-3.558,1.39-.463-.349a8.792,8.792,0,0,0-2.012-1.133l-.556-.223-.544-3.684h-4.677l-.543,3.68-.549.224a9.3,9.3,0,0,0-2.024,1.14l-.462.343-3.555-1.389-2.321,3.907,3.008,2.287-.083.6a7.638,7.638,0,0,0,0,2.252l.083.6-3.008,2.287,2.321,3.906Zm8.571,5.383h0Zm6.65-3.725-.006.01Zm.46-.158h0ZM948.356,94.29l-.006.01Zm-.121-.523.008.006Zm2.318-3.8,0,0Zm.468-.167-.006.01Zm6.652-3.715h0Zm5.322,0h0Zm-2.612,17.5H960.3a5.576,5.576,0,1,1,5.733-5.576A5.66,5.66,0,0,1,960.384,103.583Zm-.037-2.081h.037a3.571,3.571,0,0,0,3.565-3.512,3.5,3.5,0,1,0-3.6,3.512Z" transform="translate(0 0)"/></g></svg>