<svg xmlns="http://www.w3.org/2000/svg" width="26" height="18.432" viewBox="0 0 26 18.432"><defs><style>.a{isolation:isolate;}.b{fill:none;stroke:#939598;}</style></defs><g class="a" transform="translate(0.5 0.5)"><path class="b" d="M122.954,546.773v2.247c-.018.25-.041.5-.052.75a25.143,25.143,0,0,1-.394,3.88,3.11,3.11,0,0,1-2.833,2.641c-1.138.13-2.283.246-3.427.282-2.293.071-4.589.115-6.883.111a64.278,64.278,0,0,1-8.064-.39,3.314,3.314,0,0,1-2.267-1.2,3.626,3.626,0,0,1-.735-1.986c-.133-1.351-.266-2.7-.317-4.06a33.3,33.3,0,0,1,.358-6.521,3.4,3.4,0,0,1,1.377-2.352,3.653,3.653,0,0,1,1.953-.616c1.85-.119,3.7-.265,5.555-.29,2.766-.037,5.533-.013,8.3.052,1.412.033,2.824.178,4.23.334a3,3,0,0,1,2.705,2.472c.2.977.28,1.977.389,2.97C122.908,545.653,122.92,546.214,122.954,546.773Zm-14.993,4.941,6.523-3.758-6.523-3.756Z" transform="translate(-97.954 -539.251)"/></g></svg>