<svg xmlns="http://www.w3.org/2000/svg" width="30.715" height="30.714" viewBox="0 0 30.715 30.714"><defs><style>.a{fill:#0099cd;}</style></defs><g transform="translate(-165.322 -38.163)"><path class="a" d="M180.945,59.03a5.241,5.241,0,0,1,9.616-2.889l2.767.4a7.563,7.563,0,1,0-9.629,9.627l-.4-2.767A5.242,5.242,0,0,1,180.945,59.03Z" transform="translate(-8.147 -8.147)"/><path class="a" d="M167.646,50.883a10.4,10.4,0,0,1,20.588-2.046l2.411.349a12.718,12.718,0,1,0-14.3,14.3l-.349-2.411A10.413,10.413,0,0,1,167.646,50.883Z"/><path class="a" d="M211.8,79.245l-6.029-6.026,2.5-2.494a2.32,2.32,0,0,0-1.073-3.893,2.275,2.275,0,0,0-.237-.051l-2.113-.306-2.9-.421-2.47-.358-4.649-.673a2.3,2.3,0,0,0-.333-.024,2.324,2.324,0,0,0-2.3,2.657l.672,4.65.357,2.471.42,2.9.305,2.111a2.4,2.4,0,0,0,1.567,1.873,2.324,2.324,0,0,0,2.377-.561l2.5-2.5,6.027,6.027a2.324,2.324,0,0,0,3.287,0l2.1-2.1a2.325,2.325,0,0,0,0-3.287Zm-3.747,3.748L202.359,77.3,200.7,75.647l-.324-.324-1.347,1.345-2.795,2.792-.267-1.849-.406-2.806-.332-2.3-.75-5.184,5.183.751,2.3.333,2.806.406,1.851.268-2.792,2.789-1.349,1.348.326.326,1.654,1.653,5.693,5.691Z" transform="translate(-16.442 -16.44)"/></g></svg>