<svg xmlns="http://www.w3.org/2000/svg" width="28.655" height="28.655" viewBox="0 0 28.655 28.655"><defs><style>.a{fill:#0099cd;}</style></defs><g transform="translate(-38.57 -48.707)"><path class="a" d="M58.452,71.793H58.02c-1.662,0-3.323,0-4.985,0a1.78,1.78,0,0,1-1.42-2.894,1.787,1.787,0,0,1,1.5-.669q2.44,0,4.88,0h.454v-.4q0-2.339,0-4.678a1.782,1.782,0,1,1,3.557-.013q0,2.339,0,4.678v.416h.441c1.685,0,3.37,0,5.055,0a1.78,1.78,0,0,1,.331,3.542,4.522,4.522,0,0,1-.487.019q-2.44,0-4.88,0H62.01v.4c0,1.827.005,3.654,0,5.481a1.774,1.774,0,0,1-1.266,1.7,1.7,1.7,0,0,1-1.956-.7,2.265,2.265,0,0,1-.318-1.077c-.032-1.791-.014-3.584-.015-5.376Z" transform="translate(-7.369 -7.31)"/><g transform="translate(38.57 48.707)"><path class="a" d="M52.9,77.362A14.327,14.327,0,1,1,67.225,63.034,14.344,14.344,0,0,1,52.9,77.362Zm0-26.154A11.826,11.826,0,1,0,64.724,63.034,11.84,11.84,0,0,0,52.9,51.208Z" transform="translate(-38.57 -48.707)"/></g></g></svg>