<svg xmlns="http://www.w3.org/2000/svg" width="50" height="50" viewBox="0 0 50 50"><defs><style>.a{fill:#ed1900;}</style></defs><g transform="translate(-7.969 99.335)"><path class="a" d="M32.969-95.765A21.455,21.455,0,0,1,54.4-74.335a21.454,21.454,0,0,1-21.43,21.43,21.454,21.454,0,0,1-21.43-21.43,21.454,21.454,0,0,1,21.43-21.43m0-3.57a25,25,0,0,0-25,25,25,25,0,0,0,25,25,25,25,0,0,0,25-25,25,25,0,0,0-25-25Z" transform="translate(0 0)"/><g transform="translate(27.406 -88.96)"><path class="a" d="M42.062-78.149H53.187l-1.855,17.8H43.916Zm.124,24.306c0-2.761,2.226-4.861,5.439-4.861s5.437,2.1,5.437,4.861c0,2.719-2.224,4.944-5.437,4.944S42.186-51.124,42.186-53.843Z" transform="translate(-42.062 78.149)"/></g></g></svg>