<svg xmlns="http://www.w3.org/2000/svg" width="50" height="35.714" viewBox="0 0 50 35.714"><defs><style>.a{fill:#6038a0;}</style></defs><g transform="translate(-8 -20)"><path class="a" d="M13.357,20A5.385,5.385,0,0,0,8,25.357v25a5.385,5.385,0,0,0,5.357,5.357H52.643A5.385,5.385,0,0,0,58,50.357v-25A5.385,5.385,0,0,0,52.643,20Zm.3,3.571H52.327L34.209,40.294a1.577,1.577,0,0,1-2.455,0Zm-2.083,2.92L29.317,42.917a5.441,5.441,0,0,0,7.329,0L54.429,26.492V50.357a1.744,1.744,0,0,1-1.786,1.786H13.357a1.744,1.744,0,0,1-1.786-1.786Z"/></g></svg>