<svg xmlns="http://www.w3.org/2000/svg" width="37.887" height="24.469" viewBox="0 0 37.887 24.469"><defs><style>.a{fill:#0099cd;}</style></defs><path class="a" d="M201.273,169.633a12.158,12.158,0,0,0-6.709,2.011,12.234,12.234,0,1,0,0,20.447,12.232,12.232,0,1,0,6.709-22.458Zm-6.709,18.057a8.845,8.845,0,0,1,0-11.645,8.847,8.847,0,0,1,0,11.645Zm-15.6-5.823a8.882,8.882,0,0,1,12.977-7.895,12.2,12.2,0,0,0,0,15.789,8.881,8.881,0,0,1-12.977-7.895Zm22.313,8.9a8.83,8.83,0,0,1-4.082-1,12.2,12.2,0,0,0,0-15.789,8.892,8.892,0,1,1,4.082,16.79Z" transform="translate(-175.621 -169.633)"/></svg>