<svg xmlns="http://www.w3.org/2000/svg" width="44.281" height="51" viewBox="0 0 44.281 51"><defs><style>.a{fill:#9900a0;}</style></defs><g transform="translate(-56.225 6.1)"><path class="a" d="M94.147,6.987A16.043,16.043,0,0,0,62.611,6.98a8.406,8.406,0,0,0-6.386,8.145V36.5a8.407,8.407,0,0,0,8.4,8.4H92.108a8.408,8.408,0,0,0,8.4-8.4V15.125A8.407,8.407,0,0,0,94.147,6.987ZM78.366-1.519a11.491,11.491,0,0,1,11.02,8.245h-22A11.454,11.454,0,0,1,78.366-1.519ZM95.926,36.5a3.822,3.822,0,0,1-3.817,3.817H64.623A3.822,3.822,0,0,1,60.806,36.5V15.125a3.821,3.821,0,0,1,3.817-3.817H92.108a3.821,3.821,0,0,1,3.817,3.817Z"/><path class="a" d="M71.779,10.8a3.063,3.063,0,0,0-3.054,3.054v6.108a3.054,3.054,0,1,0,6.108,0V13.854A3.063,3.063,0,0,0,71.779,10.8Z" transform="translate(6.587 8.905)"/></g></svg>