<svg xmlns="http://www.w3.org/2000/svg" width="35.146" height="35.146" viewBox="0 0 35.146 35.146"><defs><style>.a{fill:#0099cd;}</style></defs><g transform="translate(-45.514 -202.335)"><path class="a" d="M66.008,210.469A12.362,12.362,0,1,0,78.37,222.83,12.375,12.375,0,0,0,66.008,210.469Zm0,22.16a9.8,9.8,0,1,1,9.8-9.8A9.81,9.81,0,0,1,66.008,232.629Z" transform="translate(-2.922 -2.922)"/><path class="a" d="M78.853,217.366c-.543-.445-1.158-.95-1.264-1.344a4.064,4.064,0,0,1,.428-1.874c.395-1.053.8-2.143.29-3.029s-1.678-1.089-2.8-1.274a4.033,4.033,0,0,1-1.808-.55,4.028,4.028,0,0,1-.55-1.808c-.185-1.12-.375-2.278-1.274-2.8s-1.975-.1-3.029.29a4.066,4.066,0,0,1-1.874.427c-.394-.105-.9-.721-1.344-1.263-.728-.888-1.481-1.807-2.543-1.807s-1.814.919-2.542,1.807c-.446.543-.95,1.158-1.344,1.264a4.083,4.083,0,0,1-1.874-.428c-1.053-.394-2.143-.8-3.029-.29s-1.09,1.678-1.274,2.8a4.022,4.022,0,0,1-.55,1.808,4.022,4.022,0,0,1-1.808.55c-1.12.185-2.278.376-2.8,1.274s-.105,1.975.29,3.029a4.073,4.073,0,0,1,.428,1.874c-.106.394-.721.9-1.265,1.344-.888.728-1.806,1.481-1.806,2.542s.918,1.814,1.806,2.542c.543.445,1.159.95,1.264,1.344a4.056,4.056,0,0,1-.428,1.874c-.395,1.053-.8,2.143-.29,3.029s1.678,1.09,2.8,1.274a4.025,4.025,0,0,1,1.808.55,4.028,4.028,0,0,1,.55,1.807c.185,1.121.376,2.278,1.274,2.8s1.975.105,3.029-.29a4.079,4.079,0,0,1,1.874-.428c.394.106.9.721,1.344,1.264.728.889,1.481,1.807,2.543,1.807s1.814-.918,2.542-1.806c.445-.543.95-1.158,1.344-1.265a4.064,4.064,0,0,1,1.873.428c1.054.4,2.143.8,3.029.29s1.089-1.678,1.274-2.8a4.025,4.025,0,0,1,.55-1.808,4.017,4.017,0,0,1,1.808-.55c1.12-.185,2.278-.376,2.8-1.274s.1-1.976-.29-3.029a4.055,4.055,0,0,1-.428-1.873c.105-.394.721-.9,1.264-1.344.888-.729,1.807-1.481,1.807-2.543S79.742,218.094,78.853,217.366Zm-.812,4.095a4.485,4.485,0,0,0-1.69,2,4.614,4.614,0,0,0,.466,2.654c.277.739.59,1.576.381,1.938s-1.11.522-1.9.652a4.557,4.557,0,0,0-2.506.909,4.557,4.557,0,0,0-.909,2.506c-.13.787-.277,1.68-.652,1.9s-1.2-.1-1.938-.381a4.628,4.628,0,0,0-2.654-.466,4.491,4.491,0,0,0-2,1.69c-.514.627-1.1,1.337-1.551,1.337s-1.038-.711-1.552-1.337a4.491,4.491,0,0,0-2-1.69,2.146,2.146,0,0,0-.551-.069,6.364,6.364,0,0,0-2.1.534c-.739.277-1.576.59-1.938.381s-.522-1.11-.652-1.9a4.558,4.558,0,0,0-.909-2.505,4.552,4.552,0,0,0-2.506-.909c-.788-.13-1.681-.277-1.9-.652s.1-1.2.381-1.937a4.611,4.611,0,0,0,.466-2.654,4.482,4.482,0,0,0-1.69-2c-.627-.515-1.337-1.1-1.337-1.552s.711-1.037,1.337-1.551a4.49,4.49,0,0,0,1.69-2,4.614,4.614,0,0,0-.466-2.654c-.277-.739-.591-1.576-.381-1.937s1.11-.522,1.9-.652a4.554,4.554,0,0,0,2.506-.909,4.56,4.56,0,0,0,.909-2.505c.129-.788.277-1.681.652-1.9s1.2.1,1.938.381a4.616,4.616,0,0,0,2.654.466,4.49,4.49,0,0,0,2-1.69c.514-.627,1.1-1.338,1.551-1.338s1.038.711,1.552,1.338a4.49,4.49,0,0,0,2,1.69,4.611,4.611,0,0,0,2.655-.466c.738-.277,1.575-.591,1.937-.381s.522,1.11.652,1.9a4.556,4.556,0,0,0,.908,2.505,4.554,4.554,0,0,0,2.506.909c.787.129,1.681.277,1.9.652s-.1,1.2-.381,1.938a4.617,4.617,0,0,0-.466,2.654,4.49,4.49,0,0,0,1.69,2c.627.514,1.338,1.1,1.338,1.551S78.667,220.946,78.041,221.46Z" transform="translate(0 0)"/><path class="a" d="M73.726,222.411l-6.432,6.432-2.731-2.731a1.281,1.281,0,0,0-1.812,1.813l3.637,3.637a1.281,1.281,0,0,0,1.812,0l7.338-7.338a1.281,1.281,0,0,0-1.812-1.812Z" transform="translate(-6.058 -7.078)"/></g></svg>