<svg xmlns="http://www.w3.org/2000/svg" width="48.844" height="24.629" viewBox="0 0 48.844 24.629"><defs><style>.a{fill:#0099cd;}</style></defs><g transform="translate(-35.49 -348.353)"><path class="a" d="M79.945,356.278a4.393,4.393,0,0,0-4.236,3.258H59.82v-2.674a2.992,2.992,0,0,1,2.989-2.99h4.824a4.389,4.389,0,1,0,0-2.261H62.809a5.256,5.256,0,0,0-5.25,5.251v2.674H51.789a8.194,8.194,0,1,0,0,2.261h5.769v2.675a5.256,5.256,0,0,0,5.25,5.251h.841a4.389,4.389,0,1,0,0-2.261h-.841a2.993,2.993,0,0,1-2.989-2.99V361.8H75.709a4.387,4.387,0,1,0,4.236-5.519Zm-8.076-5.664a2.128,2.128,0,1,1-2.128,2.128A2.13,2.13,0,0,1,71.869,350.614ZM43.683,366.6a5.932,5.932,0,1,1,5.931-5.933A5.94,5.94,0,0,1,43.683,366.6Zm24.2-.135a2.128,2.128,0,1,1-2.128,2.128A2.13,2.13,0,0,1,67.886,366.465Zm12.058-3.67a2.128,2.128,0,1,1,2.128-2.128A2.131,2.131,0,0,1,79.945,362.8Z" transform="translate(0 0)"/><path class="a" d="M47.949,360.861,43.97,364.84l-1.689-1.689a.792.792,0,0,0-1.121,1.121l2.249,2.25a.793.793,0,0,0,1.121,0l4.539-4.539a.792.792,0,0,0-1.121-1.121Z" transform="translate(-1.339 -3.024)"/></g></svg>