<svg xmlns="http://www.w3.org/2000/svg" width="40" height="40" viewBox="0 0 40 40"><defs><style>.a{fill:none;}.b{fill:#707070;}</style></defs><path class="a" d="M0,0H40V40H0Z"/><path class="b" d="M30.791,2H11.6A3.208,3.208,0,0,0,8.4,5.2V24.393a3.208,3.208,0,0,0,3.2,3.2H30.791a3.208,3.208,0,0,0,3.2-3.2V5.2A3.208,3.208,0,0,0,30.791,2Zm0,22.393H11.6V5.2H30.791ZM5.2,8.4H2V30.791a3.208,3.208,0,0,0,3.2,3.2H27.592v-3.2H5.2Zm19.194,9.6V13.2a1.6,1.6,0,0,0-1.6-1.6h-3.2v8h3.2A1.6,1.6,0,0,0,24.393,17.995Zm-3.2-4.8h1.6v4.8h-1.6Zm6.4,3.2h1.6V14.8h-1.6V13.2h1.6V11.6h-3.2v8h1.6Zm-12.8,0h1.6a1.6,1.6,0,0,0,1.6-1.6V13.2a1.6,1.6,0,0,0-1.6-1.6H13.2v8h1.6Zm0-3.2h1.6v1.6H14.8Z" transform="translate(2.005 2.005)"/></svg>