<svg xmlns="http://www.w3.org/2000/svg" width="29.521" height="23.982" viewBox="0 0 29.521 23.982"><defs><style>.a{fill:#0099cd;}</style></defs><g transform="translate(-46.483 -137.635)"><path class="a" d="M72.186,154.736a2.644,2.644,0,1,0,1.308,2.282A2.638,2.638,0,0,0,72.186,154.736Z" transform="translate(-9.586 -7.391)"/><path class="a" d="M57.82,154a8.39,8.39,0,0,0,2.55,6.026,1.62,1.62,0,0,0,2.513-.351l.05-.084a1.657,1.657,0,0,0-.291-2.018,5.064,5.064,0,0,1,0-7.144,1.657,1.657,0,0,0,.291-2.018l-.05-.084a1.62,1.62,0,0,0-2.513-.351A8.39,8.39,0,0,0,57.82,154Z" transform="translate(-5.012 -4.372)"/><path class="a" d="M80.487,154a5.061,5.061,0,0,1-1.475,3.572,1.656,1.656,0,0,0-.291,2.018l.05.084a1.62,1.62,0,0,0,2.513.351,8.4,8.4,0,0,0,0-12.052,1.62,1.62,0,0,0-2.513.351l-.05.084a1.656,1.656,0,0,0,.291,2.018A5.06,5.06,0,0,1,80.487,154Z" transform="translate(-14.154 -4.372)"/><path class="a" d="M92.762,149.646A14.736,14.736,0,0,0,87.1,138.037a1.68,1.68,0,0,0-2.479.466h0a1.664,1.664,0,0,0,.392,2.161,11.37,11.37,0,0,1,0,17.964,1.664,1.664,0,0,0-.392,2.161h0a1.681,1.681,0,0,0,2.479.467A14.739,14.739,0,0,0,92.762,149.646Z" transform="translate(-16.757 -0.02)"/><path class="a" d="M49.83,149.626a11.379,11.379,0,0,1,4.436-9.011,1.608,1.608,0,0,0,.378-2.091l-.056-.094a1.628,1.628,0,0,0-2.4-.451,14.739,14.739,0,0,0,0,23.3,1.628,1.628,0,0,0,2.4-.451l.056-.094a1.608,1.608,0,0,0-.379-2.091A11.381,11.381,0,0,1,49.83,149.626Z"/></g></svg>