<svg xmlns="http://www.w3.org/2000/svg" width="26.007" height="24.465" viewBox="0 0 26.007 24.465"><defs><style>.a{isolation:isolate;}.b{fill:none;stroke:#939598;}</style></defs><g class="a" transform="translate(0.5 0.5)"><path class="b" d="M97.954,639.844v-.293a.865.865,0,0,1,.666-.463,5.892,5.892,0,0,0,1.045-.319,7.335,7.335,0,0,0,3.726-3.853.822.822,0,0,0-.483-1.279c-.324-.147-.675-.235-1-.382a4.918,4.918,0,0,1-1-.537.9.9,0,0,1,.169-1.615,1.312,1.312,0,0,1,1.218-.053,2.259,2.259,0,0,0,1.179.243c.17-.018.26-.073.235-.276-.04-.339-.049-.681-.068-1.022a13.449,13.449,0,0,1,.059-3.237,6.037,6.037,0,0,1,3.278-4.333,7.321,7.321,0,0,1,3.847-.787,6.673,6.673,0,0,1,4.914,2.187,5.4,5.4,0,0,1,1.539,3.572c.02,1.169-.037,2.34-.071,3.509-.011.358.023.437.378.386a4.362,4.362,0,0,0,.932-.262,1.537,1.537,0,0,1,1.316.078.892.892,0,0,1,.187,1.594,5.7,5.7,0,0,1-1.111.588c-.338.156-.708.247-1.037.417a.752.752,0,0,0-.39,1.118,9.163,9.163,0,0,0,.709,1.3,6.491,6.491,0,0,0,4.189,2.989.624.624,0,0,1,.339,1.116,2.13,2.13,0,0,1-.806.522c-.685.223-1.39.382-2.091.552-.16.039-.26.09-.295.261-.054.262-.125.521-.19.781a.682.682,0,0,1-.835.588c-.541-.058-1.079-.153-1.621-.181a3.11,3.11,0,0,0-1.8.328c-.551.328-1.082.69-1.616,1.046a5.1,5.1,0,0,1-5.033.527,8.431,8.431,0,0,1-1.765-1.072,4.049,4.049,0,0,0-3.025-.813c-.395.047-.786.124-1.18.18a.7.7,0,0,1-.892-.6c-.06-.245-.13-.487-.176-.734-.036-.2-.143-.268-.336-.308a16.9,16.9,0,0,1-1.681-.4A1.9,1.9,0,0,1,97.954,639.844Z" transform="translate(-97.954 -621.631)"/></g></svg>