<svg xmlns="http://www.w3.org/2000/svg" width="28.031" height="21.565" viewBox="0 0 28.031 21.565"><defs><style>.a{isolation:isolate;}.b{fill:none;stroke:#939598;}</style></defs><g class="a" transform="translate(1.693 0.712)"><path class="b" d="M97.954,473.288a10.483,10.483,0,0,0,7.528-2.111A5.3,5.3,0,0,1,100.7,467.6a5.834,5.834,0,0,0,2.283-.105,5.2,5.2,0,0,1-2.947-1.843,5.045,5.045,0,0,1-1.113-3.249,5.158,5.158,0,0,0,2.229.612,5.26,5.26,0,0,1-1.52-6.865,14.65,14.65,0,0,0,10.567,5.391c-.019-.511-.063-1-.049-1.48a5.112,5.112,0,0,1,3.727-4.638,5.054,5.054,0,0,1,4.988,1.292.329.329,0,0,0,.343.094,10.637,10.637,0,0,0,3.057-1.2,5.321,5.321,0,0,1-2.113,2.784,9.734,9.734,0,0,0,2.8-.745,9.774,9.774,0,0,1-2.273,2.426.64.64,0,0,0-.277.61,14.568,14.568,0,0,1-1.495,6.711,14.3,14.3,0,0,1-5.418,6.093,13.95,13.95,0,0,1-5.582,1.958,15.242,15.242,0,0,1-5.228-.194,14.324,14.324,0,0,1-4.615-1.876C98.045,473.359,98.027,473.344,97.954,473.288Z" transform="translate(-97.954 -455.229)"/></g></svg>