<svg xmlns="http://www.w3.org/2000/svg" width="24.02" height="26.731" viewBox="0 0 24.02 26.731"><defs><style>.a{fill:#0099cd;}</style></defs><g transform="translate(-47.608 -406.595)"><path class="a" d="M66.042,417.9a5.653,5.653,0,1,0-5.653-5.653A5.66,5.66,0,0,0,66.042,417.9Zm0-9.317a3.664,3.664,0,1,1-3.664,3.664A3.668,3.668,0,0,1,66.042,408.584Z" transform="translate(-6.424)"/><path class="a" d="M71.5,441.033a12.122,12.122,0,0,0-23.769,0l-.126.628.519.374a19.655,19.655,0,0,0,22.981,0l.519-.374Zm-11.884,2.722a17.551,17.551,0,0,1-9.787-2.958,10.134,10.134,0,0,1,19.575,0A17.552,17.552,0,0,1,59.618,443.754Z" transform="translate(0 -12.418)"/></g></svg>