<svg xmlns="http://www.w3.org/2000/svg" width="26.732" height="26.731" viewBox="0 0 26.732 26.731"><defs><style>.a{fill:#0099cd;}</style></defs><g transform="translate(-161.372 -352.462)"><path class="a" d="M174.738,352.462A13.365,13.365,0,1,0,188.1,365.828,13.381,13.381,0,0,0,174.738,352.462Zm0,24.071a10.706,10.706,0,1,1,10.706-10.705A10.718,10.718,0,0,1,174.738,376.533Z" transform="translate(0 0)"/><path class="a" d="M181.968,367.637v-7.423a1,1,0,0,0-1.995,0v7.878c0,.011,0,.021,0,.033,0,.036.006.07.011.106s.008.061.015.09a.963.963,0,0,0,.029.094.792.792,0,0,0,.033.089.868.868,0,0,0,.045.084.964.964,0,0,0,.052.083.834.834,0,0,0,.058.07.9.9,0,0,0,.073.078c.008.008.014.017.023.024L185.2,373.1a1,1,0,1,0,1.31-1.5Z" transform="translate(-6.233 -2.263)"/></g></svg>