<svg xmlns="http://www.w3.org/2000/svg" width="22.672" height="26.5" viewBox="0 0 22.672 26.5"><defs><style>.a{fill:none;stroke:#a0a0a0;stroke-linecap:round;stroke-linejoin:round;}.b{fill:#fff;}</style></defs><g transform="translate(-766.8 -859.5)"><g transform="translate(767.3 860)"><path class="a" d="M6.667,6H21.833A2.251,2.251,0,0,1,24,8.327v16.29a2.251,2.251,0,0,1-2.167,2.327H6.667A2.251,2.251,0,0,1,4.5,24.617V8.327A2.251,2.251,0,0,1,6.667,6Z" transform="translate(-4.5 -3.833)"/><path class="a" d="M24,3V7.333" transform="translate(-9.917 -3)"/><path class="a" d="M12,3V7.333" transform="translate(-6.583 -3)"/><path class="a" d="M4.5,15H24" transform="translate(-4.5 -5.756)"/></g><g transform="translate(774.306 870.833)"><circle class="b" cx="7.583" cy="7.583" r="7.583"/><g transform="translate(1.867 1.867)"><path class="a" d="M14.287,8.643A5.643,5.643,0,1,1,8.643,3a5.643,5.643,0,0,1,5.643,5.643Z" transform="translate(-3 -3)"/><path class="a" d="M18,9v3.386l2.257,1.129" transform="translate(-12.357 -6.743)"/></g></g></g></svg>