<svg xmlns="http://www.w3.org/2000/svg" width="27.764" height="30.204" viewBox="0 0 27.764 30.204"><defs><style>.a{fill:none;stroke:#0099cd;stroke-linecap:round;stroke-linejoin:round;stroke-width:2px;}.b{fill:#fff;}</style></defs><g transform="translate(1 1)"><path class="a" d="M6.912,6H23.795a2.392,2.392,0,0,1,2.412,2.371v16.6a2.392,2.392,0,0,1-2.412,2.371H6.912A2.392,2.392,0,0,1,4.5,24.97V8.371A2.392,2.392,0,0,1,6.912,6Z" transform="translate(-4.5 -2.63)"/><path class="a" d="M24,3V9.739" transform="translate(-8.323 -3)"/><path class="a" d="M12,3V9.739" transform="translate(-5.97 -3)"/><path class="a" d="M4.5,15H26.207" transform="translate(-4.5 -5.115)"/><g transform="translate(9.425 12.356)"><ellipse class="b" cx="8.67" cy="8.424" rx="8.67" ry="8.424"/><g transform="translate(2.074 2.074)"><path class="a" d="M15.511,9.269A6.256,6.256,0,1,1,9.256,3a6.262,6.262,0,0,1,6.256,6.269Z" transform="translate(-2.751 -3)"/><path class="a" d="M18,9v3.761l2.508,1.254" transform="translate(-11.586 -6.492)"/></g></g></g></svg>