<svg xmlns="http://www.w3.org/2000/svg" width="14.455" height="13.303" viewBox="0 0 14.455 13.303">
  <g id="Group_538" data-name="Group 538" transform="translate(-350.085 -414.386)">
    <path id="Path_125" data-name="Path 125" d="M354.241,430.988c1.163,0,2.326,0,3.489,0a.163.163,0,0,0,.186-.131,2.307,2.307,0,0,1,4.359.007.156.156,0,0,0,.18.124q.73-.008,1.459,0a.623.623,0,0,1,.186,1.218.957.957,0,0,1-.263.031c-.47,0-.939,0-1.408,0a.147.147,0,0,0-.168.121,2.308,2.308,0,0,1-4.368-.012c-.036-.1-.091-.108-.177-.108h-6.928a.645.645,0,0,1-.677-.478.619.619,0,0,1,.477-.757,1.283,1.283,0,0,1,.227-.017Zm5.848,1.674a1.048,1.048,0,1,0-1.043-1.05A1.051,1.051,0,0,0,360.089,432.662Z" transform="translate(-0.004 -10.577)" fill="#0099cd"/>
    <path id="Path_126" data-name="Path 126" d="M356.777,417.307a2.319,2.319,0,0,1-1.684,1.605,2.293,2.293,0,0,1-2.723-1.47.168.168,0,0,0-.194-.139c-.49.008-.981.006-1.471,0a.635.635,0,0,1-.617-.564.623.623,0,0,1,.473-.663.842.842,0,0,1,.2-.018c.482,0,.964,0,1.446,0,.076,0,.117-.013.146-.1a2.312,2.312,0,0,1,4.391.014c.008.024.018.047.03.081h.162q3.457,0,6.914,0a.651.651,0,0,1,.521.213.585.585,0,0,1,.112.649.6.6,0,0,1-.537.385c-.046,0-.093,0-.14,0h-7.031Zm-2.24.408a1.05,1.05,0,0,0,.027-2.1,1.05,1.05,0,1,0-.027,2.1Z" transform="translate(0)" fill="#0099cd"/>
    <path id="Path_127" data-name="Path 127" d="M356.775,445.935H363.9a.592.592,0,0,1,.585.368.6.6,0,0,1-.1.663.588.588,0,0,1-.468.215h-1.1q-2.937,0-5.874,0a.185.185,0,0,0-.214.145,2.308,2.308,0,0,1-4.358-.028.147.147,0,0,0-.171-.117c-.482,0-.964,0-1.446,0a.624.624,0,1,1,0-1.246q.736,0,1.472,0c.069,0,.11-.009.138-.089a2.312,2.312,0,0,1,4.4.028Zm-2.219-.409a1.05,1.05,0,1,0,1.042,1.052A1.051,1.051,0,0,0,354.555,445.526Z" transform="translate(-0.002 -21.166)" fill="#0099cd"/>
  </g>
</svg>
