<svg xmlns="http://www.w3.org/2000/svg" width="72" height="72" viewBox="0 0 72 72"><defs><style>.a{fill:#00ef8b;}.b{fill:#fff;}.c{fill:#16ff99;}</style></defs><circle class="a" cx="36" cy="36" r="36"/><rect class="b" width="10.152" height="10.152" transform="translate(41.616 30.384)"/><path class="b" d="M66.424,122a3.816,3.816,0,1,1-3.816-3.816h3.816V108.032H62.608A13.968,13.968,0,1,0,76.576,122h0v-3.816H66.424Z" transform="translate(-34.96 -77.648)"/><path class="b" d="M125.84,63.912h11.448V53.76H125.84a13.981,13.981,0,0,0-13.968,13.968v1.3h10.152v-1.3A3.841,3.841,0,0,1,125.84,63.912Z" transform="translate(-80.408 -38.64)"/><path class="c" d="M122.024,108.032H111.872v10.152h10.152Z" transform="translate(-80.408 -77.648)"/></svg>