<svg xmlns="http://www.w3.org/2000/svg" width="26" height="26" viewBox="0 0 26 26"><defs><style>.a{opacity:0.4;}.b{fill:#0099cd;}.c,.e{fill:none;}.c{stroke:#0099cd;stroke-width:2px;}.d{stroke:none;}</style></defs><g class="a"><path class="b" d="M14.234,13.5h1.554v7.93H14.234Zm-2.59,0H8.536c-.622,0-1.036.661-1.036,1.322v5.287c0,.661.414,1.322,1.036,1.322h3.108c.622,0,1.036-.661,1.036-1.322V17.465H11.126v1.983H9.054V15.483H12.68v-.661C12.68,14.161,12.266,13.5,11.644,13.5ZM22,15.483V13.5H17.342v7.93H18.9V18.787h2.072V16.8H18.9V15.483Z" transform="translate(-1.5 -4.437)"/><g class="c"><rect class="d" width="26" height="26" rx="5"/><rect class="e" x="1" y="1" width="24" height="24" rx="4"/></g></g></svg>