<svg xmlns="http://www.w3.org/2000/svg" width="40" height="40" viewBox="0 0 40 40"><defs><style>.a{fill:#45b1e0;}.b{fill:#fff;}</style></defs><circle class="a" cx="20" cy="20" r="20"/><g transform="translate(7 13)"><path class="b" d="M964.949,186a4.715,4.715,0,0,0-1.386-1.386.207.207,0,0,0-.249,0,4.188,4.188,0,0,1-4.935,0,.208.208,0,0,0-.249,0c-1.636,1.053-2.439,3.1-2.439,5.489,0,1,3.937,1.386,6.931,1.164A7.384,7.384,0,0,1,964.949,186Z" transform="translate(-955.689 -178.181)"/><circle class="b" cx="3.077" cy="3.077" r="3.077" transform="translate(2.079)"/><path class="b" d="M985.592,184.613a.208.208,0,0,0-.249,0,4.188,4.188,0,0,1-4.935,0,.208.208,0,0,0-.249,0A5.085,5.085,0,0,0,978.772,186a7.381,7.381,0,0,1,2.329,5.267c3.022.222,6.931-.138,6.931-1.164C988.032,187.718,987.228,185.667,985.592,184.613Z" transform="translate(-961.695 -178.181)"/><circle class="b" cx="3.077" cy="3.077" r="3.077" transform="translate(18.103)"/><path class="b" d="M974.392,187.086a.208.208,0,0,0-.249,0,4.188,4.188,0,0,1-4.935,0,.208.208,0,0,0-.249,0c-1.636,1.053-2.44,3.105-2.44,5.489,0,1.636,10.341,1.636,10.341,0C976.832,190.219,976.028,188.14,974.392,187.086Z" transform="translate(-958.507 -178.825)"/><circle class="b" cx="3.077" cy="3.077" r="3.077" transform="translate(10.091 1.83)"/></g></svg>