<svg xmlns="http://www.w3.org/2000/svg" width="26.411" height="26.411" viewBox="0 0 26.411 26.411"><defs><style>.a{opacity:01;}.b{fill:none;stroke:#0099cd;stroke-linecap:round;stroke-linejoin:round;stroke-width:2px;}</style></defs><g class="a" transform="translate(1 1)"><path class="b" d="M7.167,4.5H25.833A2.667,2.667,0,0,1,28.5,7.167V25.833A2.667,2.667,0,0,1,25.833,28.5H7.167A2.667,2.667,0,0,1,4.5,25.833V7.167A2.667,2.667,0,0,1,7.167,4.5Z" transform="translate(-4.5 -4.5)"/><path class="b" d="M15,12.75a2.25,2.25,0,1,1-2.25-2.25A2.25,2.25,0,0,1,15,12.75Z" transform="translate(-5.3 -5.3)"/><path class="b" d="M28.5,22.5,21.937,15,7.5,31.5" transform="translate(-4.5 -7.5)"/></g></svg>