<svg xmlns="http://www.w3.org/2000/svg" width="19.769" height="22" viewBox="0 0 19.769 22"><path d="M64.916,415.649a4.527,4.527,0,1,0-4.527-4.527A4.532,4.532,0,0,0,64.916,415.649Zm0-7.46a2.934,2.934,0,1,1-2.934,2.933A2.937,2.937,0,0,1,64.916,408.188Z" transform="translate(-55.031 -406.595)" fill="#939598"/><path d="M67.273,439.093a10.034,10.034,0,0,0-19.562,0l-.1.5.427.3a16.542,16.542,0,0,0,18.914,0l.427-.3Zm-9.781,2.179a14.732,14.732,0,0,1-8.055-2.369,8.4,8.4,0,0,1,16.11,0A14.733,14.733,0,0,1,57.493,441.273Z" transform="translate(-47.608 -420.866)" fill="#939598"/></svg>