<svg xmlns="http://www.w3.org/2000/svg" width="25" height="27.822" viewBox="0 0 25 27.822"><defs><style>.a{fill:#fff;}</style></defs><g transform="translate(-1321 -31.683)"><g transform="translate(1273.392 -374.912)"><path class="a" d="M66.25,418.316a5.861,5.861,0,1,0-5.861-5.861A5.867,5.867,0,0,0,66.25,418.316Zm0-9.659a3.8,3.8,0,1,1-3.8,3.8A3.8,3.8,0,0,1,66.25,408.658Z" transform="translate(-6.142 0)"/><path class="a" d="M72.478,441.39a12.627,12.627,0,0,0-24.739,0l-.131.651.54.388a20.522,20.522,0,0,0,23.919,0l.54-.388Zm-12.369,2.821a18.318,18.318,0,0,1-10.187-3.067,10.558,10.558,0,0,1,20.374,0A18.32,18.32,0,0,1,60.108,444.211Z" transform="translate(0 -11.857)"/></g></g></svg>