<svg xmlns="http://www.w3.org/2000/svg" width="28.293" height="23.004" viewBox="0 0 28.293 23.004"><g transform="translate(0.498 0.502)"><path d="M395.936,42.043a7.864,7.864,0,0,0-3.8-6.339,8.007,8.007,0,0,0-8.952.12,1.6,1.6,0,0,1-1.337.262A1.342,1.342,0,0,1,380.823,35a1.363,1.363,0,0,1,.59-1.46,10.306,10.306,0,0,1,4.191-1.773,10.988,10.988,0,0,1,10.466,3.506,7.889,7.889,0,0,1,.669.82,10.875,10.875,0,0,1,2.073,5.724c.011.181.078.213.24.223.595.039,1.191.076,1.781.151.571.073.624.2.392.726-.051.115-.1.23-.163.339a30.961,30.961,0,0,1-3.146,4.625,4.025,4.025,0,0,1-.374.39c-.333.306-.452.307-.769-.007a5.518,5.518,0,0,1-.487-.543,33.146,33.146,0,0,1-2.961-4.606,3.692,3.692,0,0,1-.209-.473c-.113-.309-.068-.412.251-.458.449-.066.9-.112,1.356-.137C395.112,42.025,395.5,42.043,395.936,42.043Z" transform="translate(-374.051 -31.569)" fill="none" stroke="#939598" stroke-width="1"/><path d="M369.307,48.981c-.6-.035-1.192-.065-1.778-.107a4.246,4.246,0,0,1-.6-.092c-.261-.057-.312-.147-.228-.4a3.055,3.055,0,0,1,.2-.475,31.786,31.786,0,0,1,3.072-4.758,6.049,6.049,0,0,1,.554-.575.284.284,0,0,1,.422-.012,5.055,5.055,0,0,1,.528.5,29.987,29.987,0,0,1,3.2,4.7,3.48,3.48,0,0,1,.211.471c.123.328.079.447-.259.5-.54.088-1.088.136-1.633.19-.248.025-.5.025-.767.038a6.626,6.626,0,0,0,.316,1.7,7.936,7.936,0,0,0,1.255,2.46,8.138,8.138,0,0,0,3.09,2.514A8.23,8.23,0,0,0,385,54.988a1.481,1.481,0,0,1,1.272-.247,1.345,1.345,0,0,1,1.048,1.091,1.359,1.359,0,0,1-.591,1.459A10.35,10.35,0,0,1,382.4,59.1a11,11,0,0,1-10.31-3.521,8.107,8.107,0,0,1-.713-.876,11.188,11.188,0,0,1-1.417-2.659,11.332,11.332,0,0,1-.64-2.98A.591.591,0,0,0,369.307,48.981Z" transform="translate(-366.661 -37.271)" fill="none" stroke="#939598" stroke-width="1"/></g></svg>