<svg xmlns="http://www.w3.org/2000/svg" width="25" height="25" viewBox="0 0 25 25"><defs><style>.a{fill:#fff;}</style></defs><path class="a" d="M25.457,16.725a9.48,9.48,0,0,0,.09-1.225,9.48,9.48,0,0,0-.09-1.225l2.711-2.063a.619.619,0,0,0,.154-.8l-2.57-4.325a.655.655,0,0,0-.784-.275l-3.2,1.25A9.456,9.456,0,0,0,19.6,6.838l-.488-3.313A.621.621,0,0,0,18.479,3h-5.14a.621.621,0,0,0-.63.525l-.488,3.313a9.943,9.943,0,0,0-2.172,1.225l-3.2-1.25a.635.635,0,0,0-.784.275L3.5,11.413a.605.605,0,0,0,.154.8l2.711,2.063a9.647,9.647,0,0,0-.09,1.225,9.647,9.647,0,0,0,.09,1.225L3.649,18.788a.619.619,0,0,0-.154.8l2.57,4.325a.655.655,0,0,0,.784.275l3.2-1.25a9.455,9.455,0,0,0,2.172,1.225l.488,3.312a.621.621,0,0,0,.63.525h5.14a.621.621,0,0,0,.63-.525l.488-3.313a9.943,9.943,0,0,0,2.172-1.225l3.2,1.25a.635.635,0,0,0,.784-.275l2.57-4.325a.619.619,0,0,0-.154-.8l-2.711-2.063Zm-9.548,3.15a4.377,4.377,0,1,1,4.5-4.375A4.443,4.443,0,0,1,15.909,19.875Z" transform="translate(-3.406 -3)"/></svg>