<svg xmlns="http://www.w3.org/2000/svg" width="23.074" height="23" viewBox="0 0 23.074 23"><path d="M22.811,15.078A8.342,8.342,0,0,0,22.89,14a8.342,8.342,0,0,0-.079-1.078L25.2,11.107a.545.545,0,0,0,.136-.7L23.071,6.6a.576.576,0,0,0-.69-.242l-2.816,1.1a8.321,8.321,0,0,0-1.911-1.078l-.43-2.915A.547.547,0,0,0,16.67,3H12.147a.547.547,0,0,0-.554.462l-.43,2.915A8.75,8.75,0,0,0,9.252,7.455l-2.816-1.1a.559.559,0,0,0-.69.242L3.484,10.4a.533.533,0,0,0,.136.7l2.386,1.815A8.489,8.489,0,0,0,5.927,14a8.489,8.489,0,0,0,.079,1.078L3.62,16.893a.545.545,0,0,0-.136.7L5.746,21.4a.576.576,0,0,0,.69.242l2.816-1.1a8.321,8.321,0,0,0,1.911,1.078l.43,2.915a.547.547,0,0,0,.554.462H16.67a.547.547,0,0,0,.554-.462l.43-2.915a8.75,8.75,0,0,0,1.911-1.078l2.816,1.1a.559.559,0,0,0,.69-.242L25.333,17.6a.545.545,0,0,0-.136-.7l-2.386-1.815Zm-8.4,2.772A3.851,3.851,0,1,1,18.367,14,3.909,3.909,0,0,1,14.409,17.85Z" transform="translate(-2.866 -2.5)" fill="none" stroke="#939598" stroke-width="1"/></svg>