<svg xmlns="http://www.w3.org/2000/svg" xmlns:xlink="http://www.w3.org/1999/xlink" width="32" height="32" viewBox="0 0 32 32"><defs><linearGradient id="a" y1="0.5" x2="1" y2="0.5" gradientUnits="objectBoundingBox"><stop offset="0" stop-color="#5bc3b2"/><stop offset="1" stop-color="#0099cd"/></linearGradient></defs><g transform="translate(-164 -607)"><circle cx="16" cy="16" r="16" transform="translate(164 607)" fill="url(#a)"/><path d="M58.452,71.793H58.02c-1.662,0-3.323,0-4.985,0a1.78,1.78,0,0,1-1.42-2.894,1.787,1.787,0,0,1,1.5-.669q2.44,0,4.88,0h.454v-.4q0-2.339,0-4.678a1.782,1.782,0,1,1,3.557-.013q0,2.339,0,4.678v.416h.441c1.685,0,3.37,0,5.055,0a1.78,1.78,0,0,1,.331,3.542,4.522,4.522,0,0,1-.487.019q-2.44,0-4.88,0H62.01v.4c0,1.827.005,3.654,0,5.481a1.774,1.774,0,0,1-1.266,1.7,1.7,1.7,0,0,1-1.956-.7,2.265,2.265,0,0,1-.318-1.077c-.032-1.791-.014-3.584-.015-5.376Z" transform="translate(119.702 553.07)" fill="#fff"/></g></svg>